<svg xmlns="http://www.w3.org/2000/svg" viewBox="0 0 144.64 181.42"><defs><style>.cls-1{fill:#f26522;}</style></defs><title>Asset 1</title><g id="Layer_2" data-name="Layer 2"><g id="Layer_1-2" data-name="Layer 1"><path class="cls-1" d="M144.64,181.07s-2.91-31.2-12.4-47.94c14-46.48-5.81-61.52-27.15-91.63A32.56,32.56,0,0,1,101.53,35c2,10.85,10,19.53,10,19.53L104,50.76l.12,7.12-8.75-2.62-2.62,8.5C83.55,44.1,97,27.94,99.19,25.47c0-.31,0-.49,0-.49C61.25,60.6,111.33,98.41,121.7,120.23c-17.71-14.66-49-14-49-14C71.85,73.73,89.86,58.1,61.78,7.5c0,0,1.43,20-5,27.5,0,0-.72-19.64-26.79-35,0,0,16.79,21.43,15.36,38.57L0,49.64s2.46,2.07,6.59,5.25C14.15,60.33,28.44,70,42.92,76.67c-8.83-6-26.26-18.32-30.16-23.38,0,0,36.9,24.51,52.72,28.72,0,0-9,5-27.94,6.07,0,0,8.43,3.16,11.86,3.42,2.1.17,0,.53,0,.53L37,94.93S48.87,111,50.72,116.28c0,0-3.18-2.32-6.89-4.61,4,10.08,8.42,22,9.52,27.54,0,0-7.91-12-15.55-19.77-5-5-10.23-11.32-11.07-14.23-1.54-5.41,2.86-18,5.32-24.39h-.18c-4.39,8.47-18,28.09-10.44,34.54A198.8,198.8,0,0,1,43,138.21c1.11,9.25,1.76,24.67-4.75,32.14,0,0,8.88-2.58,14.89-9.28a62.67,62.67,0,0,0-4.71-15.72,83.83,83.83,0,0,1,7.49,11.92s0,0,0,0c4.81,9.28,6.65,18.08,2,24.18,0,0,9.53-3.53,15.15-16.62l-.15.2c.18-.35.34-.71.51-1.06.45-1.13.88-2.32,1.27-3.59a40.57,40.57,0,0,0,1.57-10.91,62.38,62.38,0,0,0-.5-7.21c4.9,1.57,15.27,5,24.41,8.32l20.09,20.28-1-10.28C132.88,171.33,144.22,180.41,144.64,181.07ZM75,137c-.7-4.4-1.53-8.7-2-12.75,4.56,3.57,17.47,13.68,31.11,24.4Z"/></g></g></svg>